<mxfile host="app.diagrams.net" agent="Mozilla/5.0 (Windows NT 10.0; Win64; x64) AppleWebKit/537.36 (KHTML, like Gecko) Chrome/135.0.0.0 Safari/537.36" version="26.1.0">
  <diagram name="1 oldal" id="phsbrihEfhKC9U0-60qc">
    <mxGraphModel dx="840" dy="418" grid="1" gridSize="10" guides="1" tooltips="1" connect="1" arrows="1" fold="1" page="1" pageScale="1" pageWidth="827" pageHeight="1169" math="0" shadow="0">
      <root>
        <mxCell id="0" />
        <mxCell id="1" parent="0" />
        <mxCell id="4nDut6LfOZqbuKuDDVsi-12" style="edgeStyle=orthogonalEdgeStyle;rounded=0;orthogonalLoop=1;jettySize=auto;html=1;" edge="1" parent="1" source="4nDut6LfOZqbuKuDDVsi-1" target="4nDut6LfOZqbuKuDDVsi-3">
          <mxGeometry relative="1" as="geometry" />
        </mxCell>
        <mxCell id="4nDut6LfOZqbuKuDDVsi-1" value="Start" style="ellipse;whiteSpace=wrap;html=1;" vertex="1" parent="1">
          <mxGeometry x="120" y="90" width="60" height="40" as="geometry" />
        </mxCell>
        <mxCell id="4nDut6LfOZqbuKuDDVsi-2" value="End" style="ellipse;whiteSpace=wrap;html=1;" vertex="1" parent="1">
          <mxGeometry x="400" y="390" width="60" height="40" as="geometry" />
        </mxCell>
        <mxCell id="4nDut6LfOZqbuKuDDVsi-13" style="edgeStyle=orthogonalEdgeStyle;rounded=0;orthogonalLoop=1;jettySize=auto;html=1;" edge="1" parent="1" source="4nDut6LfOZqbuKuDDVsi-3" target="4nDut6LfOZqbuKuDDVsi-4">
          <mxGeometry relative="1" as="geometry" />
        </mxCell>
        <mxCell id="4nDut6LfOZqbuKuDDVsi-3" value="Running vulnerable Apache server on localhost" style="rounded=1;whiteSpace=wrap;html=1;fillColor=#f8cecc;strokeColor=#b85450;" vertex="1" parent="1">
          <mxGeometry x="90" y="150" width="120" height="60" as="geometry" />
        </mxCell>
        <mxCell id="4nDut6LfOZqbuKuDDVsi-14" style="edgeStyle=orthogonalEdgeStyle;rounded=0;orthogonalLoop=1;jettySize=auto;html=1;" edge="1" parent="1" source="4nDut6LfOZqbuKuDDVsi-4" target="4nDut6LfOZqbuKuDDVsi-5">
          <mxGeometry relative="1" as="geometry" />
        </mxCell>
        <mxCell id="4nDut6LfOZqbuKuDDVsi-4" value="Scanning with Nmap (.nse) scripts + custom" style="rounded=1;whiteSpace=wrap;html=1;fillColor=#e1d5e7;strokeColor=#9673a6;" vertex="1" parent="1">
          <mxGeometry x="230" y="150" width="120" height="60" as="geometry" />
        </mxCell>
        <mxCell id="4nDut6LfOZqbuKuDDVsi-15" style="edgeStyle=orthogonalEdgeStyle;rounded=0;orthogonalLoop=1;jettySize=auto;html=1;" edge="1" parent="1" source="4nDut6LfOZqbuKuDDVsi-5" target="4nDut6LfOZqbuKuDDVsi-6">
          <mxGeometry relative="1" as="geometry" />
        </mxCell>
        <mxCell id="4nDut6LfOZqbuKuDDVsi-5" value="Save the report" style="rounded=1;whiteSpace=wrap;html=1;fillColor=#f5f5f5;fontColor=#333333;strokeColor=#666666;" vertex="1" parent="1">
          <mxGeometry x="370" y="150" width="120" height="60" as="geometry" />
        </mxCell>
        <mxCell id="4nDut6LfOZqbuKuDDVsi-16" style="edgeStyle=orthogonalEdgeStyle;rounded=0;orthogonalLoop=1;jettySize=auto;html=1;exitX=0;exitY=0.5;exitDx=0;exitDy=0;" edge="1" parent="1" source="4nDut6LfOZqbuKuDDVsi-6" target="4nDut6LfOZqbuKuDDVsi-7">
          <mxGeometry relative="1" as="geometry" />
        </mxCell>
        <mxCell id="4nDut6LfOZqbuKuDDVsi-6" value="Parsing the report for vulnerabilities" style="rounded=1;whiteSpace=wrap;html=1;fillColor=#fff2cc;strokeColor=#d6b656;" vertex="1" parent="1">
          <mxGeometry x="370" y="230" width="120" height="60" as="geometry" />
        </mxCell>
        <mxCell id="4nDut6LfOZqbuKuDDVsi-17" style="edgeStyle=orthogonalEdgeStyle;rounded=0;orthogonalLoop=1;jettySize=auto;html=1;exitX=0;exitY=0.5;exitDx=0;exitDy=0;entryX=1;entryY=0.5;entryDx=0;entryDy=0;" edge="1" parent="1" source="4nDut6LfOZqbuKuDDVsi-7" target="4nDut6LfOZqbuKuDDVsi-8">
          <mxGeometry relative="1" as="geometry" />
        </mxCell>
        <mxCell id="4nDut6LfOZqbuKuDDVsi-7" value="Automated fixing the found vulnerabilities according to a fix set" style="rounded=1;whiteSpace=wrap;html=1;fillColor=#dae8fc;strokeColor=#6c8ebf;" vertex="1" parent="1">
          <mxGeometry x="230" y="230" width="120" height="60" as="geometry" />
        </mxCell>
        <mxCell id="4nDut6LfOZqbuKuDDVsi-18" style="edgeStyle=orthogonalEdgeStyle;rounded=0;orthogonalLoop=1;jettySize=auto;html=1;exitX=0.5;exitY=1;exitDx=0;exitDy=0;" edge="1" parent="1" source="4nDut6LfOZqbuKuDDVsi-8" target="4nDut6LfOZqbuKuDDVsi-9">
          <mxGeometry relative="1" as="geometry" />
        </mxCell>
        <mxCell id="4nDut6LfOZqbuKuDDVsi-8" value="Restart Apache" style="rounded=1;whiteSpace=wrap;html=1;fillColor=#ffe6cc;strokeColor=#d79b00;" vertex="1" parent="1">
          <mxGeometry x="90" y="230" width="120" height="60" as="geometry" />
        </mxCell>
        <mxCell id="4nDut6LfOZqbuKuDDVsi-19" style="edgeStyle=orthogonalEdgeStyle;rounded=0;orthogonalLoop=1;jettySize=auto;html=1;exitX=1;exitY=0.5;exitDx=0;exitDy=0;" edge="1" parent="1" source="4nDut6LfOZqbuKuDDVsi-9" target="4nDut6LfOZqbuKuDDVsi-10">
          <mxGeometry relative="1" as="geometry" />
        </mxCell>
        <mxCell id="4nDut6LfOZqbuKuDDVsi-9" value="Scanning again with same scanning rules" style="rounded=1;whiteSpace=wrap;html=1;fillColor=#e1d5e7;strokeColor=#9673a6;" vertex="1" parent="1">
          <mxGeometry x="90" y="310" width="120" height="60" as="geometry" />
        </mxCell>
        <mxCell id="4nDut6LfOZqbuKuDDVsi-20" style="edgeStyle=orthogonalEdgeStyle;rounded=0;orthogonalLoop=1;jettySize=auto;html=1;exitX=1;exitY=0.5;exitDx=0;exitDy=0;" edge="1" parent="1" source="4nDut6LfOZqbuKuDDVsi-10" target="4nDut6LfOZqbuKuDDVsi-11">
          <mxGeometry relative="1" as="geometry" />
        </mxCell>
        <mxCell id="4nDut6LfOZqbuKuDDVsi-10" value="Manual fix of found vulnerabilities&amp;nbsp;&lt;div&gt;(if neccessary)&lt;/div&gt;" style="rounded=1;whiteSpace=wrap;html=1;fillColor=#dae8fc;strokeColor=#6c8ebf;" vertex="1" parent="1">
          <mxGeometry x="230" y="310" width="120" height="60" as="geometry" />
        </mxCell>
        <mxCell id="4nDut6LfOZqbuKuDDVsi-21" style="edgeStyle=orthogonalEdgeStyle;rounded=0;orthogonalLoop=1;jettySize=auto;html=1;exitX=0.5;exitY=1;exitDx=0;exitDy=0;entryX=0.5;entryY=0;entryDx=0;entryDy=0;" edge="1" parent="1" source="4nDut6LfOZqbuKuDDVsi-11" target="4nDut6LfOZqbuKuDDVsi-2">
          <mxGeometry relative="1" as="geometry" />
        </mxCell>
        <mxCell id="4nDut6LfOZqbuKuDDVsi-11" value="Hardened Apache server" style="rounded=1;whiteSpace=wrap;html=1;fillColor=#d5e8d4;strokeColor=#82b366;" vertex="1" parent="1">
          <mxGeometry x="370" y="310" width="120" height="60" as="geometry" />
        </mxCell>
      </root>
    </mxGraphModel>
  </diagram>
</mxfile>
